<?xml version="1.0"?><svg width="40" height="40" viewBox="0 0 40 40" xmlns="http://www.w3.org/2000/svg"><path d="m18.5 23.9c0.6 0.6 0.6 1.7 0 2.3l-0.1 0.2c-0.7 0.6-1.7 0.6-2.4 0l-8 8c-0.6 0.6-1.7 0.6-2.3-0.1l-1.2-1.1c-0.6-0.7-0.6-1.7 0-2.4l8-8-0.3-0.3c-0.7-0.6-0.7-1.7 0-2.3l0.1-0.1c0.7-0.7 1.7-0.7 2.4 0l0.3 0.3 3.5-3.6-5.2-5.2c-0.6-0.7-0.7-1.7 0-2.4l4.3-4.2c0.6-0.7 1.7-0.7 2.3 0l5.4 5.3c0.5-0.1 1.2 0 1.6 0.5l1.2 1.2c0.4 0.4 0.6 1 0.4 1.6l4.9 4.9c0.7 0.6 0.7 1.7 0 2.3l-4.2 4.3c-0.7 0.6-1.7 0.6-2.4 0l-4.7-4.8-3.6 3.6z m6.5 10.3c0-0.5 0.4-0.9 0.8-0.9h8.4c0.4 0 0.8 0.4 0.8 0.9 0 0.4-0.4 0.8-0.8 0.8h-8.4c-0.4 0-0.8-0.4-0.8-0.8z" fill="#3BC275"></path></svg>