<?xml version="1.0"?><svg width="40" height="40" viewBox="0 0 40 40" xmlns="http://www.w3.org/2000/svg"><path d="m8.8 16.3c0 0 0-0.1 0 0h0z m29.1 0h0 0z m-37.8 18.7c-0.1-0.1-0.1-0.2-0.1-0.3v-30.2c0-1.3 1-2.3 2.2-2.3h12c0.3 0 0.7 0.2 0.9 0.5l2.9 4.1h16c1.2 0 2.2 1.1 2.2 2.3l0 4.9h1.7c1.4 0 2.1 1.1 2.1 2.5l-0.1 0.4-6.6 19.2c-0.2 1-1 1.7-2 1.7h-29.2c-1.3 0-2.3-1.3-2-2.8z m2.1-6.5l4.6-12.9c0.2-1 1.1-1.6 2-1.6h25.2l0-4.9c0 0-16.5 0-16.5 0-0.4 0-0.7-0.1-0.9-0.4l-3-4.2h-11.4c0 0 0 24 0 24z m6.6-12.2l-6.6 19.2h29l6.6-19.2h-29z" fill="#B0B6BE"></path></svg>