<?xml version="1.0"?><svg width="40" height="40" viewBox="0 0 40 40" xmlns="http://www.w3.org/2000/svg"><path d="m0 20c0-11 9-20 20-20 11.1 0 20 9 20 20 0 11.1-9 20-20 20-11.1 0-20-9-20-20z m17.5 9.2c0 1 0.5 1.6 1.5 1.6h1.3c0.9 0 1.5-0.6 1.5-1.6v-1.1c0-1.1-0.6-1.6-1.5-1.6h-1.3c-1 0-1.5 0.5-1.5 1.6v1.1z m1.3-4.7h1.6c0.8 0 1.2-0.3 1.4-1l0.1-0.4c0.5-2.2 4.6-3.2 4.6-7.5 0-3.7-3.3-5.6-6.3-5.6-2.1 0-3.6 0.7-4.5 1.4-0.9 0.5-0.8 1.2-0.3 2.1l0.7 1c0.5 0.8 1.3 0.8 2.2 0.4 0.4-0.3 0.9-0.4 1.4-0.4 1 0 1.9 0.7 1.9 1.6 0 2.3-4.3 3.5-4.3 6.5v0.3c0 1 0.6 1.6 1.5 1.6z" fill="#68D29C"></path></svg>