<?xml version="1.0"?><svg width="40" height="40" viewBox="0 0 40 40" xmlns="http://www.w3.org/2000/svg"><path d="m39.4 10.2c0.6 0.8 0.8 1.9 0.4 3l-6.6 21.3c-0.3 1-0.9 1.9-1.8 2.6-1 0.7-1.9 1-3 1h-22.1c-1.3 0-2.5-0.4-3.6-1.3-1.2-0.8-2-1.8-2.4-3.1-0.4-1-0.4-2 0-3 0 0 0-0.2 0-0.6 0.1-0.4 0.1-0.6 0.1-0.9 0-0.1 0-0.3 0-0.5-0.1-0.2-0.1-0.3-0.1-0.4 0-0.2 0.1-0.4 0.2-0.5 0.1-0.2 0.2-0.4 0.4-0.6 0.1-0.2 0.3-0.4 0.4-0.5 0.3-0.6 0.7-1.3 1-2.2 0.4-0.8 0.6-1.5 0.8-2.1 0-0.2 0-0.4 0-0.7-0.1-0.4-0.1-0.6 0-0.7 0-0.2 0.1-0.4 0.4-0.7 0.2-0.2 0.3-0.4 0.4-0.5 0.3-0.6 0.7-1.3 1-2.2 0.3-0.9 0.5-1.6 0.6-2.1 0-0.1 0-0.4-0.1-0.8 0-0.3 0-0.5 0-0.6 0.1-0.2 0.3-0.5 0.6-0.7 0.3-0.3 0.4-0.5 0.5-0.6 0.3-0.4 0.6-1 1-2 0.4-0.9 0.6-1.6 0.7-2.2 0-0.2 0-0.4-0.1-0.6-0.1-0.3-0.1-0.5 0-0.7 0-0.1 0.1-0.2 0.2-0.4 0.1-0.1 0.2-0.3 0.4-0.5 0.2-0.2 0.3-0.4 0.4-0.5 0.2-0.2 0.3-0.4 0.4-0.7 0.2-0.3 0.3-0.6 0.4-0.9 0.1-0.2 0.2-0.5 0.4-0.8 0.1-0.3 0.3-0.6 0.4-0.8 0.2-0.2 0.4-0.3 0.7-0.5 0.2-0.2 0.5-0.3 0.8-0.3 0.3 0 2.2 0 2.4 0h18.2c1.2 0 2.1 0.4 2.8 1.3 0.6 0.9 0.8 1.9 0.4 3.1l-6.6 21.3c-0.5 1.9-1.1 3.1-1.7 3.7-0.6 0.5-1.6 0.8-3.1 0.8h-20.8c-0.5 0-0.8 0.1-1 0.3-0.1 0.3-0.1 0.6 0 1 0.4 1.1 1.6 1.7 3.5 1.7h22.2c0.4 0 0.9-0.1 1.3-0.4 0.4-0.2 0.7-0.6 0.8-1l7.2-23.2c0.2-0.4 0.2-0.8 0.2-1.4 0.6 0.3 1 0.6 1.4 1.1z m-26.3 10.2c-0.4 1 0.2 1.5 1.1 1.1l11.6-4.6c1-0.4 1.1-1.3 0.3-1.9l-7.1-5.9c-0.8-0.7-1.8-0.4-2.1 0.6l-3.8 10.7z" fill="#63768D"></path></svg>