<?xml version="1.0"?><svg width="40" height="40" viewBox="0 0 40 40" xmlns="http://www.w3.org/2000/svg"><path d="m40 20c0-11-9-20-20-20s-20 9-20 20c0 5.8 2.5 11.1 6.5 14.7l0 0.1 0.6 0.5 0.2 0.1c0.3 0.3 0.7 0.6 1 0.8 0.1 0.1 0.3 0.2 0.4 0.3 0.4 0.2 0.8 0.5 1.2 0.7 0.1 0.1 0.1 0.1 0.2 0.2 0.5 0.2 0.9 0.5 1.4 0.7l0.1 0c1.5 0.7 3.1 1.3 4.8 1.6l0.2 0c0.5 0.1 1 0.2 1.6 0.2l0.2 0c0.5 0.1 1 0.1 1.6 0.1 0.5 0 1.1 0 1.6-0.1l0.2 0c0.6 0 1.1-0.1 1.6-0.2l0.1 0c1.7-0.3 3.3-0.8 4.8-1.5l0.2-0.1c0.4-0.2 0.9-0.4 1.3-0.7 0.1 0 0.2-0.1 0.3-0.2 0.4-0.2 0.8-0.4 1.2-0.7l0.4-0.3c0.3-0.2 0.6-0.4 0.9-0.7 0.1 0 0.1-0.1 0.2-0.1l0.7-0.6 0 0c4-3.7 6.5-8.9 6.5-14.8z m-20-18.4c10.1 0 18.4 8.2 18.4 18.3 0 5.5-2.4 10.3-6.2 13.7-0.2-0.1-0.4-0.3-0.6-0.4l-6.2-3c-0.5-0.3-0.8-0.8-0.8-1.5v-2.1c0.1-0.2 0.2-0.3 0.4-0.6 0.8-1.1 1.4-2.3 1.9-3.6 0.9-0.5 1.5-1.4 1.5-2.4v-2.6c0-0.6-0.2-1.2-0.6-1.7v-3.3c0-0.4 0.1-2.5-1.4-4.2-1.3-1.5-3.5-2.3-6.4-2.3s-5.1 0.8-6.4 2.3c-1.5 1.7-1.4 3.8-1.4 4.2v3.3c-0.4 0.5-0.6 1.1-0.6 1.7v2.6c0 0.8 0.4 1.5 1 2 0.6 2.3 1.8 4 2.2 4.6v2.1c0 0.6-0.3 1.1-0.8 1.4l-5.7 3.1c-0.2 0.1-0.4 0.2-0.6 0.3-3.7-3.3-6.1-8.2-6.1-13.6 0-10.1 8.3-18.3 18.4-18.3z" fill="#4786FF"></path></svg>