<?xml version="1.0"?><svg width="40" height="40" viewBox="0 0 40 40" xmlns="http://www.w3.org/2000/svg"><path d="m20 39.4c-1.7 0-3.1-1.4-3.1-3.2 0-1.7 1.4-3.1 3.1-3.1 2.8 0 5.4-0.9 7.6-2.4 1.4-1 3.4-0.7 4.4 0.7 1 1.4 0.6 3.4-0.8 4.4-3.2 2.3-7.1 3.5-11.2 3.5z m18.3-13c0.7-2.1 1.1-4.2 1.1-6.4 0-1.9-0.3-3.7-0.8-5.5-0.5-1.6-2.2-2.6-3.9-2.1-1.6 0.5-2.6 2.2-2.1 3.9 0.3 1.2 0.5 2.4 0.5 3.7 0 1.5-0.2 2.9-0.7 4.3-0.6 1.6 0.3 3.4 1.9 4 1.7 0.5 3.4-0.3 4-1.9z m-6.4-21.7c-3.1-2.5-7-3.9-11-4.1-1.8-0.1-3.2 1.3-3.3 3-0.1 1.7 1.3 3.2 3 3.3 2.7 0.1 5.3 1.1 7.5 2.7 1.3 1.1 3.3 0.8 4.4-0.5 1-1.4 0.8-3.3-0.6-4.4z m-22.4-1c-3.4 2.2-6 5.3-7.5 9.1-0.6 1.6 0.1 3.4 1.7 4 1.6 0.7 3.5-0.1 4.1-1.7 1-2.5 2.8-4.7 5.1-6.2 1.4-0.9 1.9-2.8 0.9-4.3-0.9-1.4-2.8-1.8-4.3-0.9z m-8.3 20.9c0.9 3.9 3.1 7.4 6.1 10 1.3 1.2 3.3 1 4.4-0.3 1.2-1.3 1-3.3-0.3-4.4-2-1.8-3.5-4.1-4.2-6.8-0.4-1.7-2.1-2.7-3.7-2.3-1.7 0.4-2.7 2.1-2.3 3.8z m17 14.7c-1.7-0.2-3-1.7-2.8-3.4 0.2-1.7 1.7-3 3.4-2.9 0.4 0.1 0.8 0.1 1.2 0.1 1.7 0 3.1 1.4 3.1 3.1 0 1.8-1.4 3.1-3.1 3.1-0.6 0-1.2 0-1.8 0z" fill="#344055"></path></svg>