<?xml version="1.0"?><svg width="40" height="40" viewBox="0 0 40 40" xmlns="http://www.w3.org/2000/svg"><path d="m17.9 4.1v-4.1c-4 0.4-7.7 2-10.6 4.4l2.8 2.9c2.3-1.7 4.9-2.9 7.8-3.2z m-10.6 6.1l-2.9-2.9c-2.4 3-4 6.6-4.4 10.7h4.1c0.3-2.9 1.5-5.6 3.2-7.8z m-3.3 11.8h-4c0.4 4 2 7.7 4.4 10.7l2.9-2.9c-1.7-2.2-2.9-4.9-3.2-7.8z m3.3 13.6c2.9 2.4 6.6 4 10.6 4.4v-4.1c-2.9-0.3-5.5-1.5-7.8-3.2l-2.8 2.9z m32.7-15.6c0 10.4-7.9 18.9-17.9 20v-4.1c7.8-1 13.9-7.8 13.9-15.9s-6.1-14.9-13.9-15.9v-4.1c10 1.1 17.9 9.6 17.9 20z m-23.3 8.3l10-8.3-10-8.3v16.6z" fill="#59CD90"></path></svg>