<?xml version="1.0"?><svg width="40" height="40" viewBox="0 0 40 40" xmlns="http://www.w3.org/2000/svg"><g transform="translate(2 5)" fill="none"><path d="m26.3 10.5h5c0.7 0 1.3-0.6 1.3-1.3 0-0.8-0.6-1.4-1.3-1.4h-5v-4.9c0-0.8-0.6-1.4-1.3-1.4-0.8 0-1.4 0.6-1.4 1.4v4.9h-4.9c-0.8 0-1.4 0.6-1.4 1.4 0 0.7 0.6 1.3 1.4 1.3h4.9v5c0 0.7 0.6 1.3 1.4 1.3 0.7 0 1.3-0.6 1.3-1.3v-5z" fill="#2E69FF"></path><rect id="Rectangle-13" fill="#323232" y="3.3333333333333335" width="15" height="3.3333333333333335" rx="1.6666666666666667"></rect><rect id="Rectangle-13" fill="#323232" y="11.666666666666668" width="15" height="3.3333333333333335" rx="1.6666666666666667"></rect><rect fill="#323232" y="20" width="31.666666666666668" height="3.3333333333333335" rx="1.6666666666666667"></rect></g></svg>