<?xml version="1.0"?><svg width="40" height="40" viewBox="0 0 40 40" xmlns="http://www.w3.org/2000/svg"><g fill="#59CD90"><path d="m25.9 4c-0.3-0.3-0.7-0.7-1.1-0.7h-14.4c-1.7 0-3.4 1.6-3.4 3.2l-0.3 0.3v19.5c0 0.8 1.1 1 1.9 1 0.8 0 1.1-0.2 1.1-1v-18c0-0.8 1.3-2 2.2-2h9.9v6.5c0 1.6 2 2.5 3.6 2.5h5.4v17c0 0.8 0 1-0.8 1h-12.1c-0.8 0-2.1 0.9-2.2 1.7 0.1 0.8 1.4 1.3 2.2 1.3h13.6c1.7 0 2.4-0.9 2.4-2.5v-20.4c0-0.4 0.1-0.9-0.2-1.2l-7.8-8.2z m-11.6 29.1l-7 6.9-0.1-0.1-3.4-3.4c-0.6-0.6-0.6-1.6 0-2.3 0.7-0.6 1.7-0.6 2.4 0l1.1 1.1 4.6-4.5c0.7-0.7 1.7-0.7 2.4 0 0.6 0.6 0.6 1.6 0 2.3z"></path></g></svg>