<svg xmlns="http://www.w3.org/2000/svg" width="42" height="31" viewBox="0 0 42 31">
  <g fill="none" fill-rule="evenodd">
    <path fill="#FFF" fillRule="nonzero" d="M3.8458278,2 C2.92853228,2 2.70418221,2.043324 2.47792916,2.16432545 C2.33757722,2.23938649 2.23938649,2.33757722 2.16432545,2.47792916 C2.043324,2.70418221 2,2.92853228 2,3.8458278 L2,25.1541722 C2,26.0714677 2.043324,26.2958178 2.16432545,26.5220708 C2.23938649,26.6624228 2.33757722,26.7606135 2.47792916,26.8356745 C2.70418221,26.956676 2.92853228,27 3.8458278,27 L27.1541722,27 C28.0714677,27 28.2958178,26.956676 28.5220708,26.8356745 C28.6624228,26.7606135 28.7606135,26.6624228 28.8356745,26.5220708 C28.956676,26.2958178 29,26.0714677 29,25.1541722 L29,3.8458278 C29,2.92853228 28.956676,2.70418221 28.8356745,2.47792916 C28.7606135,2.33757722 28.6624228,2.23938649 28.5220708,2.16432545 C28.2958178,2.043324 28.0714677,2 27.1541722,2 L3.8458278,2 Z M3.8458278,0 L27.1541722,3.10752092e-16 C28.4914503,6.50980888e-17 28.9763797,0.139238417 29.4652686,0.400699056 C29.9541574,0.662159695 30.3378403,1.04584256 30.5993009,1.53473144 C30.8607616,2.02362033 31,2.50854969 31,3.8458278 L31,25.1541722 C31,26.4914503 30.8607616,26.9763797 30.5993009,27.4652686 C30.3378403,27.9541574 29.9541574,28.3378403 29.4652686,28.5993009 C28.9763797,28.8607616 28.4914503,29 27.1541722,29 L3.8458278,29 C2.50854969,29 2.02362033,28.8607616 1.53473144,28.5993009 C1.04584256,28.3378403 0.662159695,27.9541574 0.400699056,27.4652686 C0.139238417,26.9763797 1.63769336e-16,26.4914503 0,25.1541722 L2.07168062e-16,3.8458278 C4.33987259e-17,2.50854969 0.139238417,2.02362033 0.400699056,1.53473144 C0.662159695,1.04584256 1.04584256,0.662159695 1.53473144,0.400699056 C2.02362033,0.139238417 2.50854969,2.45654003e-16 3.8458278,0 Z M0,21 L31,21 L31,23 L0,23 L0,21 Z M15,10 L23,10 C23.5522847,10 24,10.4477153 24,11 C24,11.5522847 23.5522847,12 23,12 L15,12 C14.4477153,12 14,11.5522847 14,11 C14,10.4477153 14.4477153,10 15,10 Z M15,5 L23,5 C23.5522847,5 24,5.44771525 24,6 C24,6.55228475 23.5522847,7 23,7 L15,7 C14.4477153,7 14,6.55228475 14,6 C14,5.44771525 14.4477153,5 15,5 Z M6.17468976,5.20790338 L10.4008104,7.92167473 C10.7512232,8.14668971 10.8490412,8.60731376 10.6192929,8.95050733 C10.562223,9.03575719 10.4878535,9.1085945 10.4008104,9.1644886 L6.17468976,11.8782599 C5.82427687,12.1032749 5.35396327,12.0074722 5.12421494,11.6642787 C5.04317284,11.5432196 5,11.4016124 5,11.256853 L5,5.82931032 C5,5.41892809 5.3396787,5.08624757 5.7586936,5.08624757 C5.90649814,5.08624757 6.05108409,5.12853094 6.17468976,5.20790338 Z M5,15 L23,15 C23.5522847,15 24,15.4477153 24,16 C24,16.5522847 23.5522847,17 23,17 L5,17 C4.44771525,17 4,16.5522847 4,16 C4,15.4477153 4.44771525,15 5,15 Z M4,24 L7,24 C7.55228475,24 8,24.4477153 8,25 C8,25.5522847 7.55228475,26 7,26 L4,26 L4,26 C3.44771525,26 3,25.5522847 3,25 C3,24.4477153 3.44771525,24 4,24 Z"/>
    <circle cx="31" cy="20" r="11" fill="#F2A254"/>
    <path fill="#FFF" d="M0.685354547,9.6 L2.4,11.3146455 L0,12 L0.685354547,9.6 Z M1.2,8.45117103 L7.1999335,2.4 L9.6,4.74882897 L3.6000665,10.8 L1.2,8.45117103 Z M8.4,1.23284527 L9.64354496,0 L12,2.36715473 L10.756455,3.6 L8.4,1.23284527 Z" transform="translate(25 14)"/>
  </g>
</svg>
