<?xml version="1.0" encoding="UTF-8"?>
<svg width="24px" height="24px" viewBox="0 0 24 24" version="1.1" xmlns="http://www.w3.org/2000/svg" xmlns:xlink="http://www.w3.org/1999/xlink">
    <g id="Admin" stroke="none" strokeWidth="1" fill="none" fillRule="evenodd">
        <g id="Action-Cards" transform="translate(-448.000000, -281.000000)">
            <g id="button_request" transform="translate(440.000000, 275.000000)">
                <g id="ico_request" transform="translate(8.000000, 6.000000)">
                    <g id="Group-29">
                        <g transform="translate(2.000000, 5.000000)">
                            <path d="M15.8000361,4.68435246 L15.8000361,1.7173918 C15.8000361,1.2737218 15.4371881,0.902281759 14.9895924,0.902281759 C14.5388761,0.902281759 14.1791486,1.26721895 14.1791486,1.7173918 L14.1791486,4.68435246 L11.212188,4.68435246 C10.768518,4.68435246 10.3970779,5.04720047 10.3970779,5.49479618 C10.3970779,5.94551244 10.7620151,6.3052399 11.212188,6.3052399 L14.1791486,6.3052399 L14.1791486,9.27220056 C14.1791486,9.71587056 14.5419967,10.0873106 14.9895924,10.0873106 C15.4403086,10.0873106 15.8000361,9.72237341 15.8000361,9.27220056 L15.8000361,6.3052399 L18.7669967,6.3052399 C19.2106667,6.3052399 19.5821068,5.94239189 19.5821068,5.49479618 C19.5821068,5.04407992 19.2171696,4.68435246 18.7669967,4.68435246 L15.8000361,4.68435246 Z" id="Combined-Shape" fill="#2E69FF" transform="translate(14.989592, 5.494796) rotate(-270.000000) translate(-14.989592, -5.494796) "></path>
                            <rect id="Rectangle-13" fill="#323232" x="0" y="2" width="9" height="2" rx="1"></rect>
                            <rect id="Rectangle-13" fill="#323232" x="0" y="7" width="9" height="2" rx="1"></rect>
                            <rect id="Rectangle-13" fill="#323232" x="0" y="12" width="19" height="2" rx="1"></rect>
                        </g>
                    </g>
                </g>
            </g>
        </g>
    </g>
</svg>
