<?xml version="1.0" encoding="UTF-8"?>
<svg width="24px" height="24px" viewBox="0 0 24 24" version="1.1" xmlns="http://www.w3.org/2000/svg" xmlns:xlink="http://www.w3.org/1999/xlink">
    <g id="Admin" stroke="none" strokeWidth="1" fill="none" fillRule="evenodd">
        <g id="Action-Cards" transform="translate(-532.000000, -369.000000)" fill="#3A78FF">
            <g id="button_upload" transform="translate(524.000000, 363.000000)">
                <g id="ico_upload" transform="translate(8.000000, 6.000000)">
                    <g>
                        <path d="M13.0368099,19.1666667 L18.4166659,19.1666667 C20.9466661,19.1666667 22.9999993,17.1133335 22.9999993,14.5833333 C22.9999993,12.163333 21.1208333,10.2016668 18.7374996,10.0366666 C18.1141659,6.8741668 15.3366662,4.5 11.9999993,4.5 C9.35083229,4.5 7.04999919,6.0033332 5.90416585,8.2033333 C3.1449992,8.49666635 0.99999928,10.8341665 0.99999928,13.6666667 C0.99999928,16.7008328 3.46583266,19.1666667 6.49999928,19.1666667 L10.777812,19.1666667 L10.777812,13.4496038 L8.59723595,15.5865233 L6.95833297,13.9903739 L11.873426,9.08333383 L16.7941665,13.9903739 L15.2196449,15.5865233 L13.0368099,13.3592983 L13.0368099,19.1666667 Z"></path>
                    </g>
                </g>
            </g>
        </g>
    </g>
</svg>
